<svg version="1" xmlns="http://www.w3.org/2000/svg" width="1365.333" height="1365.333" viewBox="0 0 1024.000000 1024.000000"><path d="M905.7 239c-9.8 1.7-20.4 9.1-26.7 18.5-5.1 7.6-6.8 24.2-3.4 34.1 6.2 18.5 25.1 29.1 45.4 25.4 12.3-2.2 22.4-10 28.2-21.8 3-6 3.3-7.4 3.3-16.1 0-14.1-3.4-21.7-14.2-31.5-7.7-7-21.3-10.6-32.6-8.6z"/><path d="M625.7 250c-19.1 2.6-34.9 4.9-35.2 5.2-.5.5-1.6 5.5-31 143.3-11.8 55.5-21.7 102-22 103.2-.5 2.1-1.1 2.3-7.3 2.3-6.2 0-6.9.2-8.7 2.7-4.5 6.4-24.8 25.4-32.7 30.7-18.4 12.2-33.2 16.9-52.8 16.9-18.9 0-26.5-3.6-31.5-14.8-1.2-2.8-2.7-7.4-3.4-10.3-1.1-5.4-1.5-30-.5-33.8.5-1.8 2-2.3 12-3.8 29.8-4.4 52.8-15.8 73-36 11.9-11.9 20.2-24.6 25.1-38 3.9-10.9 5.5-32.1 3.3-43.6-1.6-8.2-5.2-15-11.1-20.8-9-8.8-18.2-12-37.1-12.9-25.2-1.3-48 4.7-67.4 17.7-7.9 5.3-27.3 24-31.6 30.4-1.3 1.8-4.3 6.2-6.7 9.6-9.4 13.4-19.3 36.4-25.6 59.5-3 11-7 33.2-7.7 42.5-.3 3.3-.5 3.5-4.3 3.8-3.9.3-4 .4-5.8 6-2.2 6.9-9.1 21.9-13.3 28.9-7.2 12.1-13.4 18.5-24.8 25.8-8 5.1-23.7 12-22.3 9.9.6-1 7.7-34 39.2-181.9 5.3-24.8 9.8-45.8 10.1-46.8.5-1.6-1.7-1.7-36-1.7-34.2 0-36.6.1-36.6 1.7 0 1-7.7 37.8-17.1 81.7-11.4 53.5-18 82.3-20 87.2-6.9 17.5-15 27.3-25.7 31.3-20.9 7.8-29.2-6.8-21.9-38.9 1.4-6.3 5.1-23.2 8.1-37.5 6-28.1 19-89.6 23-109 1.4-6.6 2.8-13 3.1-14.3l.5-2.2h-36.5c-34.9 0-36.5.1-36.5 1.9 0 1.7-4.3 22.4-25.4 121.9-10.7 50.6-12 59.2-11.3 74.2 1 18.2 4.8 29.3 13.8 39.3 5.5 6.2 15.4 11.9 23.9 13.6 6 1.3 22.5 1.6 29.8.5 13.9-1.9 29.2-10 39.4-20.8 2.7-2.8 4.8-4.6 4.8-3.9 0 1.3-5 24.7-5.3 24.8-.1.1-2.2.7-4.7 1.4-38.6 10.7-69.9 35.6-74.9 59.9-1.4 6.8-1.4 18.6 0 25.4 3.3 15.5 16.5 28.7 33.4 33.3 14.9 4 40.2 2.6 55.1-3 8.3-3.1 22.1-12.1 22.8-14.9.3-1.1.8-1.7 1.2-1.4.8.9 6.6-5.3 12-12.7 11.1-15.6 18.2-37.2 25.5-77.5 1.5-8.2 1.9-9 3.9-9 2.4 0 15-4.5 21.5-7.7 7.8-3.8 23.4-14.6 24.1-16.6.3-1 .8-1.6 1.2-1.3.3.3 1-.4 1.6-1.7.6-1.2 2-2.6 3.1-3.1 3.6-1.6 16.5-18.5 19.8-25.9 1.5-3.3 2.7-3.5 2.7-.3 0 4.4 5.9 20.5 9.6 26.3 12.9 20.2 33.2 29.3 65.6 29.4 22.7 0 41.7-4 58.5-12.5 7.8-3.9 23.3-14 27.6-18 1.5-1.4 3-2.6 3.3-2.6.8 0 4.4-4 4.4-4.9 0-.6.5-1.3 1.2-1.7.7-.5.8-.2.3.7-.4.8 1.5-1 4.3-4 2.9-3 5.2-5.8 5.2-6.3 0-.4.5-.8 1-.8 2.3 0 12.6-12.8 24.8-30.6 1.1-1.7 1.2-1.6.7 1.1-.2 1.6-.8 8.4-1.1 15-1.8 34 11.1 56.4 36.3 63 12.8 3.4 36.3 1.5 51.2-4.1 19.2-7.3 43.8-30.4 55.1-51.9l2.8-5.3.7 8.7c1.5 18.8 6.1 31.3 14.7 40.1 10.1 10.3 20.6 14 38.9 14.1 21.6 0 37.9-5.1 54.4-16.9 11.9-8.6 31.9-32.4 36.6-43.7 1.2-2.8 1.3-2.3 2 7 1.4 19.6 5.5 30.2 15.6 40.3 10 9.9 19.7 13.3 38.3 13.3 17.6-.1 27.7-3.9 38.5-14.6 7.7-7.8 11.9-15.7 14.1-26.8.9-4.8 1.5-8.9 1.2-9.2-.3-.3-2.2.2-4.3 1.1-4.8 2-19.5 1.6-23.9-.6-8.3-4.3-9.7-14.8-4.7-37.5 1.7-7.7 4.6-21.4 6.5-30.5 1.9-9.1 5.3-25.3 7.6-36s7.7-36.3 12-56.9c4.4-20.5 8.2-38.2 8.5-39.2.6-1.8-.6-1.9-35.7-1.9h-36.4l-2.1 10.7c-2.1 10.4-22 104.5-28.5 134.5l-3.2 14.8h-13.4l-1.2 3.7c-2.8 8.5-10.4 21.4-16.2 27.3-11.3 11.4-26.2 15.8-38.3 11.3-10.4-3.9-11.4-13.8-4.7-44.3 4-18 8.9-40.7 19.1-89 2.7-12.9 7.9-37.2 11.5-54 3.6-16.8 9.5-44.5 13.1-61.5 3.6-17.1 7.6-35.8 8.9-41.8 1.2-5.9 2-10.7 1.6-10.7-.4 0-15.5 2-33.6 4.4-18.1 2.5-34.4 4.6-36.3 4.8l-3.5.3-26.3 123C695.9 445.1 684 501.3 684 502.2c0 1.6-1 1.8-7.5 1.8-6.6 0-7.5.2-7.5 1.8 0 2.9-8.5 19.7-13 25.6-7.2 9.6-20.7 16.6-32 16.6-17.8 0-22.3-10.1-16.6-36.4 2.7-12.2 9-41.6 19.1-89.1 3.6-17.1 8.8-41.4 11.5-54 10.6-49.4 26-122.3 26-122.9 0-.9 0-.9-38.3 4.4zM471.1 368.5c5.6 2.2 7.3 22.8 3.1 37.8-4.1 14.4-13.1 30.5-22.5 40.1-8.9 9.1-25.6 18.3-38.4 21.2-4.1.9-7.6 1.4-7.9 1.1-.8-.8 5-22.8 9.1-34.6 7.2-20.8 15.6-38.1 23.6-48.8 2.2-2.9 3.9-5.6 3.9-6 .1-1.1 8.7-7.6 13-9.8 6.3-3.3 10.1-3.5 16.1-1zM172.9 629.7c-8.5 38.9-22.6 56.1-38.4 46.8-3.2-1.8-4.8-3.7-6.5-7.7-2-4.7-2.1-5.8-1.1-10.2 1.1-4.8 5.8-13.6 7.4-13.6.4 0 .7-.5.7-1.1 0-1.5 1.6-2.9 9.9-8.4 6.1-4 26.9-14.3 29.3-14.5.3 0-.3 3.9-1.3 8.7z"/></svg>